#N canvas 55 55 1018 741 12;
#X obj 12 44 loadbang;
#X obj 12 68 del 1000;
#X msg 12 92 \; pd dsp 1;
#X obj 216 76 netreceive 3000;
#X obj 556 107 table sound_0_L;
#X obj 686 107 table sound_0_R;
#X obj 556 137 table sound_1_L;
#X obj 556 167 table sound_2_L;
#X obj 556 197 table sound_3_L;
#X obj 556 227 table sound_4_L;
#X obj 556 257 table sound_5_L;
#X obj 556 287 table sound_6_L;
#X obj 556 317 table sound_7_L;
#X obj 556 347 table sound_8_L;
#X obj 556 377 table sound_9_L;
#X obj 686 137 table sound_1_R;
#X obj 686 167 table sound_2_R;
#X obj 686 197 table sound_3_R;
#X obj 686 227 table sound_4_R;
#X obj 686 257 table sound_5_R;
#X obj 686 287 table sound_6_R;
#X obj 686 317 table sound_7_R;
#X obj 686 347 table sound_8_R;
#X obj 686 377 table sound_9_R;
#X obj 211 425 tabplay~;
#X obj 291 425 tabplay~;
#X obj 211 449 *~;
#X obj 291 449 *~;
#X obj 232 533 dac~;
#X obj 344 243 line~;
#X msg 344 219 1 50;
#X msg 370 162 0 50;
#X msg 184 357 set sound_\$1_L;
#X obj 312 120 sel 50 55 40;
#X obj 241 301 t b f;
#X msg 263 383 set sound_\$1_R;
#X obj 525 495 loadbang;
#X obj 525 573 until;
#X obj 525 597 f;
#X obj 591 597 + 1;
#X obj 525 645 soundfiler;
#X obj 525 669 print loaded;
#X obj 525 519 del 1500;
#X msg 525 621 read -resize samples/sample_\$1.wav sound_\$1_L sound_\$1_R;
#X msg 340 582 stop;
#X obj 359 508 del 100;
#X obj 474 319 i;
#X obj 525 549 i 12;
#X obj 556 407 table sound_10_L;
#X obj 686 407 table sound_10_R;
#X obj 686 437 table sound_11_R;
#X obj 556 437 table sound_11_L;
#X connect 0 0 1 0;
#X connect 1 0 2 0;
#X connect 3 0 33 0;
#X connect 24 0 26 0;
#X connect 25 0 27 0;
#X connect 26 0 28 0;
#X connect 27 0 28 1;
#X connect 29 0 27 1;
#X connect 29 0 26 1;
#X connect 30 0 29 0;
#X connect 31 0 29 0;
#X connect 32 0 24 0;
#X connect 33 0 30 0;
#X connect 33 0 44 0;
#X connect 33 1 31 0;
#X connect 33 1 45 0;
#X connect 33 2 46 0;
#X connect 33 3 34 0;
#X connect 33 3 46 1;
#X connect 34 0 24 0;
#X connect 34 0 25 0;
#X connect 34 1 32 0;
#X connect 34 1 35 0;
#X connect 35 0 25 0;
#X connect 36 0 42 0;
#X connect 37 0 38 0;
#X connect 38 0 39 0;
#X connect 38 0 43 0;
#X connect 39 0 38 1;
#X connect 40 0 41 0;
#X connect 42 0 47 0;
#X connect 43 0 40 0;
#X connect 44 0 25 0;
#X connect 44 0 24 0;
#X connect 45 0 44 0;
#X connect 46 0 34 0;
#X connect 47 0 37 0;
