#N canvas 8 55 753 760 12;
#X obj 12 44 loadbang;
#X obj 12 68 del 1000;
#X msg 12 92 \; pd dsp 1;
#X obj 626 18 netreceive 3000;
#X obj 556 107 table sound_0_L;
#X obj 686 107 table sound_0_R;
#X obj 556 137 table sound_1_L;
#X obj 556 167 table sound_2_L;
#X obj 556 197 table sound_3_L;
#X obj 556 227 table sound_4_L;
#X obj 556 257 table sound_5_L;
#X obj 556 287 table sound_6_L;
#X obj 556 317 table sound_7_L;
#X obj 556 347 table sound_8_L;
#X obj 556 377 table sound_9_L;
#X obj 686 137 table sound_1_R;
#X obj 686 167 table sound_2_R;
#X obj 686 197 table sound_3_R;
#X obj 686 227 table sound_4_R;
#X obj 686 257 table sound_5_R;
#X obj 686 287 table sound_6_R;
#X obj 686 317 table sound_7_R;
#X obj 686 347 table sound_8_R;
#X obj 686 377 table sound_9_R;
#X obj 184 425 tabplay~;
#X obj 264 425 tabplay~;
#X obj 184 489 *~;
#X obj 264 489 *~;
#X obj 184 533 dac~;
#X obj 394 470 line~;
#X msg 184 357 set sound_\$1_L;
#X obj 197 120 sel 50 55 40;
#X obj 241 301 t b f;
#X msg 264 383 set sound_\$1_R;
#X obj 525 525 loadbang;
#X obj 525 603 until;
#X obj 525 627 f;
#X obj 591 627 + 1;
#X obj 525 675 soundfiler;
#X obj 525 699 print loaded;
#X obj 525 549 del 1500;
#X msg 525 651 read -resize samples/sample_\$1.wav sound_\$1_L sound_\$1_R;
#X msg 101 377 stop;
#X obj 101 263 del 100;
#X obj 241 241 i;
#X obj 556 407 table sound_10_L;
#X obj 686 407 table sound_10_R;
#X obj 686 437 table sound_11_R;
#X obj 556 437 table sound_11_L;
#X obj 525 579 i 13;
#X obj 556 467 table sound_12_L;
#X obj 686 467 table sound_12_R;
#X obj 197 187 t b b;
#X msg 197 211 12;
#X obj 42 708 text define settings;
#X msg 42 654 read -c settings.txt;
#X floatatom 309 602 5 0 0 0 - - - 0;
#X obj 309 578 text get settings;
#X obj 309 500 loadbang;
#X obj 414 12 bng 19 250 50 0 empty empty empty 0 -10 0 12 #fcfcfc #000000 #000000;
#X msg 414 36 50;
#X obj 447 32 bng 19 250 50 0 empty empty empty 0 -10 0 12 #fcfcfc #000000 #000000;
#X msg 447 56 55;
#X obj 481 52 bng 19 250 50 0 empty empty empty 0 -10 0 12 #fcfcfc #000000 #000000;
#X obj 481 76 random 9;
#X obj 481 100 + 1;
#X text 435 9 Lift phone;
#X text 468 29 Lower phone;
#N canvas 263 105 450 300 win_sound 0;
#X obj 138 175 i;
#X obj 168 175 + 1;
#X floatatom 138 199 5 0 0 0 - - - 0;
#X obj 138 222 spigot;
#X floatatom 138 246 5 0 0 0 - - - 0;
#X obj 85 30 inlet;
#X obj 156 30 inlet;
#X obj 138 269 outlet;
#X obj 286 125 r input;
#X obj 286 149 sel 50 55;
#X msg 286 173 1;
#X msg 316 193 0;
#X obj 99 122 bng 19 250 50 0 empty empty empty 0 -10 0 12 #fcfcfc #000000 #000000;
#X msg 156 73 0;
#X connect 0 0 1 0;
#X connect 0 0 2 0;
#X connect 1 0 0 1;
#X connect 2 0 3 0;
#X connect 3 0 4 0;
#X connect 4 0 7 0;
#X connect 5 0 0 0;
#X connect 6 0 13 0;
#X connect 8 0 9 0;
#X connect 9 0 10 0;
#X connect 9 1 11 0;
#X connect 10 0 3 1;
#X connect 11 0 3 1;
#X connect 12 0 0 0;
#X connect 13 0 0 1;
#X restore 394 206 pd win_sound;
#X obj 626 48 s input;
#X obj 394 391 r input;
#X obj 197 92 r input;
#X floatatom 394 230 5 0 0 0 - - - 0;
#X obj 394 415 sel 50 55;
#X msg 394 446 1 50;
#X msg 434 446 0 50;
#X obj 309 524 del 500;
#X msg 309 548 1;
#X obj 309 625 s maxLevel;
#X obj 394 277 change;
#X obj 394 301 sel 1;
#X obj 394 349 readsf~ 2;
#X msg 394 325 open samples/win.wav \, 1;
#X obj 394 253 >=;
#X msg 318 312 stop;
#X connect 0 0 1 0;
#X connect 1 0 2 0;
#X connect 3 0 69 0;
#X connect 24 0 26 0;
#X connect 25 0 27 0;
#X connect 26 0 28 0;
#X connect 27 0 28 1;
#X connect 29 0 27 1;
#X connect 29 0 26 1;
#X connect 30 0 24 0;
#X connect 31 0 52 0;
#X connect 31 1 43 0;
#X connect 31 2 44 0;
#X connect 31 3 32 0;
#X connect 31 3 44 1;
#X connect 32 0 24 0;
#X connect 32 0 25 0;
#X connect 32 0 68 0;
#X connect 32 1 30 0;
#X connect 32 1 33 0;
#X connect 33 0 25 0;
#X connect 34 0 40 0;
#X connect 35 0 36 0;
#X connect 36 0 37 0;
#X connect 36 0 41 0;
#X connect 37 0 36 1;
#X connect 38 0 39 0;
#X connect 40 0 49 0;
#X connect 41 0 38 0;
#X connect 42 0 25 0;
#X connect 42 0 24 0;
#X connect 42 0 81 0;
#X connect 43 0 42 0;
#X connect 44 0 32 0;
#X connect 49 0 35 0;
#X connect 52 0 53 0;
#X connect 52 1 42 0;
#X connect 52 1 68 1;
#X connect 53 0 32 0;
#X connect 55 0 54 0;
#X connect 56 0 78 0;
#X connect 56 0 83 1;
#X connect 57 0 56 0;
#X connect 58 0 76 0;
#X connect 58 0 55 0;
#X connect 59 0 60 0;
#X connect 60 0 69 0;
#X connect 61 0 62 0;
#X connect 62 0 69 0;
#X connect 63 0 64 0;
#X connect 64 0 65 0;
#X connect 65 0 69 0;
#X connect 68 0 72 0;
#X connect 70 0 73 0;
#X connect 71 0 31 0;
#X connect 72 0 83 0;
#X connect 73 0 74 0;
#X connect 73 1 75 0;
#X connect 74 0 29 0;
#X connect 75 0 29 0;
#X connect 76 0 77 0;
#X connect 77 0 57 0;
#X connect 79 0 80 0;
#X connect 80 0 82 0;
#X connect 80 0 84 0;
#X connect 81 0 26 0;
#X connect 81 1 27 0;
#X connect 82 0 81 0;
#X connect 83 0 79 0;
#X connect 84 0 25 0;
#X connect 84 0 24 0;
